# xmcd
#
# Track frame offsets: 
#        150
#        15764
#        32326
#        46156
#        79338
#        98932
#        124250
#        135912
#        156662
#        178607
#        201475
#        223038
#
# Disc length: 3344 seconds
#
# Revision: 0
# Processed by: cddbd v1.5.2PL0 Copyright (c) Steve Scherf et al.
# Submitted via: ExactAudioCopy v0.99pb3
#
DISCID=9d0d0e0c
DTITLE=Angry Johnny and the Killbillies - The Hanging of Hattie Ledoux
DTITLE=[CD]
DYEAR=2014
DGENRE=Bloodgrass
TTITLE0=King's Highway
TTITLE1=Come Out Come Out
TTITLE2=Gotta Find a Reson
TTITLE3=The Hanging of Hattie Ledoux
TTITLE4=Cold of Hate
TTITLE5=Before the Darkness
TTITLE6=Damnation
TTITLE7=I Loved That Girl
TTITLE8=Sweet Taste of Death
TTITLE9=November
TTITLE10=Sweet Mary
TTITLE11=My Time is Coming
EXTD=
EXTT0=
EXTT1=
EXTT2=
EXTT3=
EXTT4=
EXTT5=
EXTT6=
EXTT7=
EXTT8=
EXTT9=
EXTT10=
EXTT11=
PLAYORDER=
